<?xml version="1.0" encoding="UTF-8" standalone="no"?>
<!-- Created with Inkscape (http://www.inkscape.org/) -->

<svg
   width="174.64355mm"
   height="277.66888mm"
   viewBox="0 0 87.321777 138.83444"
   version="1.1"
   id="svg1"
   xml:space="preserve"
   inkscape:version="1.4.3 (0d15f75, 2025-12-25)"
   sodipodi:docname="barberLogo.svg"
   xmlns:inkscape="http://www.inkscape.org/namespaces/inkscape"
   xmlns:sodipodi="http://sodipodi.sourceforge.net/DTD/sodipodi-0.dtd"
   xmlns="http://www.w3.org/2000/svg"
   xmlns:svg="http://www.w3.org/2000/svg"><sodipodi:namedview
     id="namedview1"
     pagecolor="#505050"
     bordercolor="#eeeeee"
     borderopacity="1"
     inkscape:showpageshadow="false"
     inkscape:pageopacity="0"
     inkscape:pagecheckerboard="true"
     inkscape:deskcolor="#505050"
     inkscape:document-units="mm"
     inkscape:zoom="0.23998507"
     inkscape:cx="214.59668"
     inkscape:cy="256.26594"
     inkscape:window-width="1366"
     inkscape:window-height="745"
     inkscape:window-x="-8"
     inkscape:window-y="-8"
     inkscape:window-maximized="1"
     inkscape:current-layer="layer1"
     inkscape:clip-to-page="true"
     inkscape:antialias-rendering="true" /><defs
     id="defs1" /><g
     inkscape:label="Camada 1"
     inkscape:groupmode="layer"
     id="layer1"
     transform="translate(-77.263218,-43.60348)"><g
       id="g1"
       transform="matrix(0.92506622,0,0,1,24.982362,-49.773488)"
       style="fill:#000000"><path
         style="fill:#000000;fill-opacity:1"
         d="m 77.243395,231.33911 0.721243,-0.23398 0.332001,0.26915 0.332001,0.26916 -1.053244,-0.0352 -1.053244,-0.0352 z m 52.038095,-0.14843 0.34516,-0.45276 0.51154,0.2563 0.51155,0.25631 v 0.19645 0.19646 h -0.85671 -0.85671 z m 17.30429,-1.74841 v -0.41919 l 0.54323,-0.27218 0.54322,-0.27217 -0.32725,0.69137 -0.32726,0.69137 h -0.21597 -0.21597 z m -25.89747,-1.69688 -0.75418,-0.7796 0.96166,0.61141 0.96165,0.61141 v 0.1682 0.16819 h -0.20747 -0.20747 z m 8.72502,0.48457 0.68689,-0.2247 0.6869,0.2247 0.6869,0.2247 h -1.3738 -1.37379 z m -39.153211,-6.8328 0.339621,-0.4455 h 0.242328 0.242329 v 0.4455 0.44549 h -0.58195 -0.581949 z m 26.316191,-0.63584 -0.30097,-0.63584 0.20473,-1.03475 0.20472,-1.03475 0.27791,1.67059 0.27791,1.67059 h -0.18167 -0.18166 z m 2.64067,-10.72417 0.0204,-1.33647 0.25332,0.78808 0.25332,0.78809 -0.27368,0.54839 -0.27368,0.54838 z m -12.81615,-23.27688 -0.75419,-0.7796 0.96166,0.61141 0.96166,0.61141 v 0.16819 0.1682 h -0.20748 -0.20747 z m 25.21057,-6.64327 0.6869,-0.2247 0.6869,0.2247 0.68689,0.22469 h -1.37379 -1.3738 z m 6.85909,-2.8234 v -1.55921 l 0.25131,0.7796 0.25131,0.77961 -0.25131,0.77961 -0.25131,0.77961 z m -13.1681,0.58226 0.97212,-0.20536 0.67644,0.22187 0.67644,0.22187 -1.64856,-0.0165 -1.64855,-0.0165 z m -37.824434,-4.70304 -1.613987,-1.44785 1.785936,1.30845 1.785936,1.30844 v 0.1394 0.1394 h -0.17195 -0.171949 z m 9.737912,0.55686 v -1.11373 l 0.27717,0.55687 0.277169,0.55686 -0.277169,0.55686 -0.27717,0.55686 z m -18.460311,-0.13059 0.375202,-0.79882 0.307618,0.24938 0.307618,0.24939 -0.682821,0.54944 -0.68282,0.54943 z m 38.833223,-2.54235 v -1.55922 l 0.25131,0.77961 0.25131,0.77961 -0.25131,0.7796 -0.25131,0.77961 z m -20.332188,-2.22746 v -1.55921 l 0.251308,0.77961 0.251307,0.7796 -0.251307,0.77961 -0.251308,0.77961 z m 15.947128,-0.66823 0.0111,-1.78196 0.23899,1.00754 0.23898,1.00755 -0.25007,0.77442 -0.25008,0.77441 z m 4.40724,-2.89569 v -2.00471 l 0.23815,1.00236 0.23814,1.00235 -0.23814,1.00235 -0.23815,1.00236 z m -38.16949,-0.30432 0.721243,-0.23398 0.332001,0.26915 0.332001,0.26915 -1.053245,-0.0352 -1.053244,-0.0352 z m 1.071099,-4.46566 1.242824,-0.19374 0.955251,0.20273 0.955251,0.20273 -2.198075,-0.009 -2.198075,-0.009 z m -1.517583,-1.0214 -0.824278,-0.43184 0.654467,-0.007 0.654467,-0.007 0.339622,0.44549 0.339621,0.44549 -0.169811,-0.007 -0.16981,-0.007 z m -7.281123,-8.75935 0.686898,-0.2247 0.686899,0.2247 0.686898,0.2247 h -1.373797 -1.373796 z m -1.174274,-4.68687 0.288558,-0.37851 0.511548,0.2563 0.511548,0.2563 v 0.12221 0.1222 h -0.800106 -0.800105 z m 11.795892,-2.8513 0.04338,-0.85386 0.288618,0.58471 0.288618,0.5847 -0.332001,0.26916 -0.332001,0.26915 z m 14.428854,-4.64053 v -3.34117 l 0.215556,1.67058 0.215555,1.67059 -0.215555,1.67059 -0.215556,1.67059 z m 37.045135,1.93242 0.6869,-0.2247 0.6869,0.2247 0.6869,0.2247 h -1.3738 -1.37379 z m 8.85959,-4.49399 -0.75418,-0.7796 0.96165,0.61141 0.96166,0.61141 v 0.16819 0.1682 h -0.20747 -0.20748 z m -22.84502,-2.33882 v -2.4502 l 0.22892,1.2251 0.22893,1.2251 -0.22893,1.2251 -0.22892,1.2251 z m -49.473515,1.02775 0.972116,-0.20537 0.67644,0.22188 0.67644,0.22187 -1.648556,-0.0165 -1.648556,-0.0165 z m 26.378728,-1.47324 v -2.00471 l 0.238144,1.00235 0.238144,1.00236 -0.238144,1.00235 -0.238144,1.00236 z m -26.663946,-2.077 0.686898,-0.2247 0.686899,0.2247 0.686898,0.2247 H 70.752205 69.378409 Z M 141.27377,128.532 v -0.64864 l 0.45793,0.22944 0.45793,0.22944 v 0.4192 0.41919 h -0.45793 -0.45793 z m -9.98774,-2.4698 v -1.11373 l 0.27717,0.55687 0.27717,0.55686 -0.27717,0.55686 -0.27717,0.55687 z"
         id="path23" /><path
         style="fill:#000000;fill-opacity:1"
         d="m 142.78254,220.24631 0.0434,-0.85386 0.28862,0.5847 0.28861,0.58471 -0.332,0.26915 -0.332,0.26915 z m -27.47594,-0.4455 0.0434,-0.85385 0.28861,0.5847 0.28862,0.58471 -0.332,0.26915 -0.332,0.26915 z m 26.3769,0 0.0434,-0.85385 0.28862,0.5847 0.28862,0.58471 -0.332,0.26915 -0.332,0.26915 z m -24.13544,-9.98641 v -1.11372 l 0.27717,0.55686 0.27717,0.55686 -0.27717,0.55687 -0.27717,0.55686 z M 94.58932,171.94772 v -5.12314 l 0.198277,2.56157 0.198277,2.56157 -0.198277,2.56157 -0.198277,2.56157 z m 5.43704,1.33647 v -2.00471 l 0.23815,1.00235 0.23814,1.00236 -0.23814,1.00235 -0.23815,1.00235 z m 14.73072,-0.70536 0.0434,-0.85386 0.28861,0.58471 0.28862,0.5847 -0.332,0.26915 -0.332,0.26915 z m -7.64988,-1.52209 v -1.11373 l 0.27717,0.55686 0.27717,0.55687 -0.27717,0.55686 -0.27717,0.55686 z m -7.09192,-3.34118 0.0111,-1.78196 0.23899,1.00754 0.23898,1.00755 -0.25007,0.77441 -0.25007,0.77442 z m -7.704356,-0.22275 v -1.55921 l 0.251307,0.7796 0.251308,0.77961 -0.251308,0.77961 -0.251307,0.77961 z m 21.853256,-4.90039 -0.82428,-0.43185 0.65447,-0.007 0.65447,-0.007 0.33962,0.44549 0.33962,0.44549 -0.16981,-0.007 -0.16981,-0.007 z m -32.273763,-3.87265 0.972116,-0.20536 0.67644,0.22187 0.67644,0.22187 -1.648556,-0.0165 -1.648556,-0.0165 z m 0.951199,-3.86889 v -0.16819 l 0.961658,-0.61142 0.961658,-0.61141 -0.754184,0.77961 -0.754184,0.77961 H 83.04909 82.841616 Z m -3.147442,-11.86004 v -2.00471 l 0.238144,1.00235 0.238144,1.00236 -0.238144,1.00235 -0.238144,1.00235 z m 52.604126,-0.17508 v -0.17509 l 0.85282,-0.2653 0.85282,-0.26531 -0.33574,0.44039 -0.33573,0.44039 h -0.51708 -0.51709 z m 1.34191,-1.56506 0.30774,-0.40367 1.09849,0.23288 1.09849,0.23288 v 0.17079 0.17079 h -1.40623 -1.40623 z m -31.43795,-3.60575 v -1.55921 l 0.25131,0.7796 0.25131,0.77961 -0.25131,0.77961 -0.25131,0.77961 z m -35.296685,-3.11843 v -0.44549 h 0.581949 0.58195 l -0.339621,0.44549 -0.339622,0.44549 h -0.242328 -0.242328 z m 7.143743,-11.55646 v -0.4192 l 0.457932,-0.22944 0.457932,-0.22944 v 0.64864 0.64864 H 74.50725 74.049318 Z m 59.210642,-4.33075 0.68689,-0.22469 0.6869,0.22469 0.6869,0.2247 h -1.3738 -1.37379 z"
         id="path19" /><path
         style="fill:#000000;fill-opacity:1"
         d="m 119.62396,228.71316 -0.56748,-0.55433 0.58982,-0.29552 0.58982,-0.29551 -0.151,0.56972 -0.15099,0.56973 0.6411,0.0203 0.64111,0.0203 0.32055,0.25987 0.32055,0.25987 h -0.833 -0.833 z m 25.21023,-0.93797 0.72125,-0.23398 0.332,0.26915 0.332,0.26915 -1.05325,-0.0352 -1.05324,-0.0352 z m -3.15069,-6.6379 0.0434,-0.85386 0.28862,0.58471 0.28862,0.5847 -0.332,0.26915 -0.332,0.26915 z m -54.358968,-1.07661 v -1.11372 l 0.27717,0.55686 0.277169,0.55686 -0.277169,0.55687 -0.27717,0.55686 z m 50.398858,-7.46196 -0.75418,-0.77961 0.96165,0.61141 0.96166,0.61141 v 0.1682 0.1682 h -0.20747 -0.20748 z m -48.383987,-2.63917 0.316604,-1.25887 0.21621,0.82693 0.21621,0.82692 -0.532814,0.43195 -0.532815,0.43195 z m -1.465352,-0.14515 v -1.11372 l 0.277169,0.55686 0.27717,0.55686 -0.27717,0.55687 -0.277169,0.55686 z m 12.735339,-21.08654 v -0.59399 h 0.72396 0.72397 l -0.60808,0.59399 -0.60808,0.59398 h -0.11589 -0.11588 z m 4.80309,-0.92557 -0.64348,-0.62858 0.71358,-0.33383 0.71358,-0.33383 -0.40737,0.36456 -0.40737,0.36455 0.61203,0.59785 0.61204,0.59785 h -0.27476 -0.27476 z m 23.18703,-8.58996 0.97211,-0.20536 0.67644,0.22187 0.67644,0.22187 -1.64855,-0.0165 -1.64856,-0.0165 z m -41.178571,-0.78541 v -0.64863 l 0.466896,0.23393 0.466896,0.23393 -0.316154,0.41471 -0.316154,0.4147 h -0.150742 -0.150742 z m -8.425953,-8.73295 v -0.47178 l 0.549518,0.27533 0.549519,0.27533 v 0.19645 0.19645 h -0.549519 -0.549518 z m 28.152944,-0.86469 v -1.55921 l 0.25131,0.77961 0.2513,0.7796 -0.2513,0.77961 -0.25131,0.77961 z m 25.55335,-3.6192 0.67774,-0.55356 0.30762,0.24939 0.30761,0.24938 -0.98535,0.30417 -0.98536,0.30418 z m -54.358848,-3.81296 0.721244,-0.23398 0.332,0.26915 0.332001,0.26915 -1.053244,-0.0352 -1.053244,-0.0352 z m 1.751591,-3.43469 v -0.17508 l 0.824278,-0.25643 0.824278,-0.25642 v 0.4315 0.43151 h -0.824278 -0.824278 z m -5.048703,-5.92061 0.721243,-0.23398 0.332001,0.26915 0.332001,0.26915 -1.053244,-0.0352 -1.053244,-0.0352 z m 61.09961,-10.57885 v -0.22275 l 1.09904,-0.47683 1.09903,-0.47684 v 0.22274 0.22275 l -1.09903,0.47684 -1.09904,0.47683 z m -56.51366,-2.48155 v -1.11372 l 0.27717,0.55686 0.27717,0.55686 -0.27717,0.55687 -0.27717,0.55686 z m 24.7487,-2.0047 0.0204,-1.33647 0.25332,0.78808 0.25332,0.78809 -0.27369,0.54838 -0.27368,0.54839 z m 8.24278,-1.78196 0.0204,-1.33648 0.25332,0.78809 0.25332,0.78809 -0.27369,0.54838 -0.27368,0.54839 z m 13.82894,-5.12314 v -4.23216 l 0.20582,2.11608 0.20582,2.11608 -0.20582,2.11607 -0.20582,2.11608 z m -22.09208,0.89098 v -1.11373 l 0.27717,0.55686 0.27717,0.55687 -0.27717,0.55686 -0.27717,0.55686 z m -32.611402,-1.6408 0.721243,-0.23398 0.332001,0.26915 0.332001,0.26915 -1.053244,-0.0352 -1.053244,-0.0352 z m -0.721243,-1.03215 0.339621,-0.44549 1.478745,0.0313 1.478746,0.0313 -1.099038,0.38286 -1.099037,0.38287 -0.719329,0.0313 -0.719329,0.0313 z m 62.232995,-10.98681 0.68689,-0.2247 0.6869,0.2247 0.6869,0.2247 h -1.3738 -1.37379 z"
         id="path17" /><path
         style="fill:#ff7f2a;fill-opacity:1"
         d="m 72.126002,231.19476 -2.747593,-0.90012 -2.513952,0.51587 -2.513953,0.51587 -1.931691,-0.29378 -1.931692,-0.29379 -1.168349,-1.00821 -1.168348,-1.00822 -0.817313,-1.87798 -0.817313,-1.87798 1.964885,0.66557 1.964886,0.66556 h 1.823775 1.823775 l 0.262388,-0.34418 0.262388,-0.34418 -0.380318,-2.44014 -0.380318,-2.44013 0.385531,-2.38548 0.385531,-2.38548 1.981314,-2.41917 1.981314,-2.41916 1.767527,-0.88045 1.767526,-0.88045 2.747594,-0.64928 2.747593,-0.64928 2.061725,-0.25695 2.061724,-0.25695 1.348066,-1.17861 1.348066,-1.17861 1.392971,-3.04661 1.392971,-3.0466 2.203602,-6.8611 2.203601,-6.8611 v -0.61898 -0.61898 l -4.658833,0.19824 -4.658833,0.19823 -2.62229,-0.5326 -2.622289,-0.5326 -1.236417,-0.93687 -1.236417,-0.93688 v -1.8171 -1.8171 l 1.059191,-3.00264 1.059191,-3.00264 -0.996782,-3.45555 -0.996782,-3.45556 -0.376338,-2.14581 -0.376339,-2.14581 0.858242,-1.06188 0.858241,-1.06188 3.887224,-1.84048 3.887223,-1.84048 1.061597,-1.41144 1.061598,-1.41144 0.0021,-0.80963 0.0021,-0.80963 -0.961658,0.22625 -0.961657,0.22625 -2.449875,0.51416 -2.449874,0.51415 -4.968628,0.0434 -4.968628,0.0434 -1.719344,-0.73726 -1.719345,-0.73725 -0.34135,-0.72115 -0.341351,-0.72115 v -1.41282 -1.41283 l 1.051101,-2.9797 1.051101,-2.97971 -1.114898,-3.47849 -1.114899,-3.47849 -0.07358,-3.34117 -0.07358,-3.34118 4.603766,-2.47156 4.603767,-2.47155 1.303559,-1.22858 1.303559,-1.22859 v -0.64339 -0.6434 h 0.447741 0.447741 l 0.948895,1.61316 0.948894,1.61316 0.617489,3.5398 0.617488,3.5398 1.419242,-0.28878 1.419241,-0.28877 0.221212,-0.17933 0.221211,-0.17934 -0.605858,-2.79151 -0.605859,-2.79152 -1.930621,-7.56687 -1.930621,-7.56688 0.799213,-4.46137 0.799212,-4.461362 0.719654,-2.198345 0.719653,-2.198345 1.240242,2.866581 1.240242,2.86658 0.766095,1.559221 0.766095,1.55921 4.758381,10.52126 4.75838,10.52126 0.434582,0.57005 0.434582,0.57005 6.511926,-1.66568 6.51191,-1.66568 2.67835,-0.73857 2.67835,-0.73856 2.9829,-6.68236 2.98289,-6.68235 0.76413,-1.55922 0.76412,-1.55922 2.03921,-4.566274 2.03921,-4.566277 h 0.35515 0.35516 l 0.6381,2.56157 0.63809,2.56157 0.66613,3.814821 0.66613,3.81483 -1.26208,4.87224 -1.26208,4.87224 -0.0696,0.60497 -0.0696,0.60498 5.8231,-0.0717 5.8231,-0.0717 2.51187,0.51276 2.51186,0.51276 1.28162,1.10615 1.28161,1.10616 -0.11365,2.15019 -0.11364,2.15018 -1.04788,2.51635 -1.04789,2.51634 0.7348,1.72902 0.73479,1.72901 0.65703,4.00062 0.65703,4.00062 -0.9503,1.17578 -0.95029,1.17577 -6.21768,2.41405 -6.21768,2.41406 -1.71724,1.58558 -1.71724,1.58558 v 0.65273 0.65274 h -0.44002 -0.44002 l -1.27765,-2.11608 -1.27764,-2.11608 -0.28339,-3.9196 -0.28339,-3.91959 -1.7082,0.29123 -1.70819,0.29123 -0.43292,0.32631 -0.43292,0.32631 -2.1773,6.55615 -2.17729,6.55615 v 0.67397 0.67396 l 0.96166,-0.22793 0.96165,-0.22793 3.26066,-0.47032 3.26066,-0.47033 h 3.6637 3.66371 l 1.86793,0.5072 1.86794,0.5072 1.23642,0.90693 1.23641,0.90692 v 1.56371 1.56371 l -0.91849,2.65378 -0.91849,2.65379 0.90587,2.75603 0.90586,2.75604 0.36435,3.17807 0.36434,3.17808 -0.91413,1.13103 -0.91414,1.13104 -4.2966,1.75133 -4.2966,1.75133 -1.80804,1.23335 -1.80805,1.23336 -0.69008,1.33054 -0.69009,1.33053 -1.37553,-2.20061 -1.37553,-2.2006 -0.40045,-3.4644 -0.40045,-3.46439 -0.89559,0.21461 -0.89559,0.21461 -1.51117,0.2922 -1.51118,0.29219 -10e-4,0.73132 -0.001,0.73131 0.89726,3.11843 0.89727,3.11844 1.89806,6.01412 1.89806,6.01412 1.60697,3.37848 1.60696,3.37848 1.28526,0.97886 1.28526,0.97886 3.4564,0.45126 3.45639,0.45126 1.78718,0.60537 1.78717,0.60537 2.19307,1.60623 2.19307,1.60622 1.24748,2.3351 1.24749,2.33511 -0.0599,3.11843 -0.0599,3.11843 -0.16027,1.11373 -0.16027,1.11372 2.47284,-0.0232 2.47283,-0.0232 1.47526,-0.35187 1.47526,-0.35186 -0.6159,1.62686 -0.61589,1.62687 -1.84014,1.30981 -1.84015,1.30981 h -1.97782 -1.97782 l -2.03522,-0.49434 -2.03523,-0.49433 -1.79961,0.75444 -1.79961,0.75444 -2.94626,0.24651 -2.94627,0.24652 -2.62447,-0.59103 -2.62447,-0.59102 -3.04384,-2.47717 -3.04384,-2.47717 -0.66541,-1.83364 -0.66541,-1.83365 v -2.42507 -2.42506 l 1.15636,-3.70713 1.15636,-3.70713 -0.63554,-2.72593 -0.63554,-2.72593 -1.14721,-2.89568 -1.1472,-2.89569 -1.64475,-2.67294 -1.64474,-2.67295 -1.54921,-1.78196 -1.54921,-1.78196 -1.8667,-1.75579 -1.8667,-1.7558 -1.59408,1.01149 -1.59409,1.01149 -2.235605,2.20168 -2.235604,2.20168 -1.79188,2.91885 -1.791881,2.91885 -1.082947,2.52888 -1.082948,2.52887 -0.797309,3.03779 -0.797308,3.03778 1.405941,4.94919 1.405942,4.94919 -0.37351,1.79226 -0.373509,1.79226 -0.955371,1.80687 -0.955371,1.80686 -1.39333,1.34241 -1.39333,1.3424 -2.667327,1.08576 -2.667327,1.08575 -3.297112,0.13304 -3.297112,0.13305 z m 9.686842,-0.23199 2.464121,-0.68067 1.995528,-1.33349 1.995528,-1.33349 1.408188,-2.41316 1.408188,-2.41316 -0.0059,-2.8119 -0.0059,-2.8119 -0.873311,-2.22746 -0.873311,-2.22745 -0.0299,-3.11843 -0.0299,-3.11843 2.043765,-4.8313 2.043764,-4.8313 2.293898,-3.10473 2.293899,-3.10473 2.853389,-2.31025 2.85339,-2.31025 -1.44417,-1.96492 -1.44417,-1.96492 -0.20019,0.48687 -0.20019,0.48688 0.88424,1.38622 0.88424,1.38622 -3.236936,2.86381 -3.236936,2.86381 -2.239297,3.68762 -2.239296,3.68763 -1.469166,3.78667 -1.469166,3.78667 -0.0036,3.11843 -0.0036,3.11843 0.871762,2.22745 0.871762,2.22746 0.0059,2.39851 0.0059,2.39851 -0.671689,1.83365 -0.67169,1.83364 -2.518888,2.05093 -2.518889,2.05093 -2.868974,0.55796 -2.868975,0.55797 -2.045848,-0.29858 -2.045848,-0.29858 -2.135028,-0.88673 -2.135028,-0.88673 -2.134862,0.6925 -2.134862,0.69249 H 63.902753 62.57072 l -1.54182,-1.07515 -1.54182,-1.07516 2.632742,0.0323 2.632742,0.0323 0.66437,-0.53936 0.664371,-0.53936 v -4.98873 -4.98873 l 1.472894,-1.83532 1.472895,-1.83532 2.007533,-1.34152 2.007533,-1.34151 3.388556,-0.54304 3.388556,-0.54304 1.767952,-0.43065 1.767952,-0.43065 1.349091,-1.29979 1.349091,-1.29978 1.185581,-2.56852 1.185582,-2.56852 1.865089,-5.56863 1.865089,-5.56863 0.797388,-2.81029 0.797389,-2.81029 -0.585989,0.15835 -0.58599,0.15835 -2.021613,6.43861 -2.021614,6.43861 -1.57551,3.99568 -1.57551,3.99569 -1.682952,1.47381 -1.682952,1.47381 -3.022352,0.41454 -3.022353,0.41454 -1.959228,0.46243 -1.959227,0.46243 -2.318496,1.60885 -2.318496,1.60886 -1.217463,1.84547 -1.217464,1.84547 v 4.84919 4.84919 l -1.316058,0.39485 -1.316059,0.39485 -1.156775,-0.26762 -1.156776,-0.26763 -0.961658,-0.21741 -0.961657,-0.21742 v 0.66407 0.66408 l 1.406922,1.3555 1.406922,1.35551 1.897896,0.28864 1.897896,0.28865 2.419892,-0.64585 2.419893,-0.64585 1.006893,0.46023 1.006893,0.46023 1.923316,0.5608 1.923315,0.56081 1.962805,0.0196 1.962804,0.0196 z m 54.202536,-0.54551 2.05286,-0.86402 1.92332,0.56571 1.92332,0.56572 1.58369,0.0339 1.58369,0.0339 1.8022,-0.90296 1.80219,-0.90296 0.57682,-1.34144 0.57683,-1.34143 -2.0394,0.32999 -2.03939,0.32999 -1.29163,-0.046 -1.29163,-0.046 -0.57212,-0.46381 -0.57211,-0.46381 0.64314,-2.65018 0.64314,-2.65017 -0.57823,-2.09174 -0.57824,-2.09174 -1.05376,-1.67453 -1.05376,-1.67452 -2.05311,-1.46139 -2.0531,-1.46139 -1.95019,-0.66059 -1.95019,-0.66058 -3.2297,-0.3701 -3.22969,-0.37009 -1.12151,-0.80693 -1.1215,-0.80692 -1.22666,-2.22746 -1.22666,-2.22745 -1.93157,-5.56863 -1.93157,-5.56863 -1.16908,-4.00941 -1.16908,-4.00942 -0.56583,-1.68345 -0.56583,-1.68344 -0.49871,0.24987 -0.49871,0.24987 0.2237,0.54259 0.2237,0.5426 2.24812,7.57334 2.24812,7.57334 2.02032,4.87144 2.02032,4.87145 1.77085,1.43561 1.77085,1.43561 1.81841,0.29037 1.81842,0.29038 2.93533,0.49907 2.93534,0.49907 2.65763,1.9371 2.65763,1.9371 0.94425,2.00442 0.94425,2.00441 -0.31288,3.91505 -0.31287,3.91505 0.38107,0.49985 0.38106,0.49986 1.53813,0.47409 1.53813,0.47409 1.33566,-0.27177 1.33566,-0.27177 v 0.46853 0.46852 l -1.22131,0.6935 -1.22131,0.69349 h -1.54393 -1.54394 l -1.94791,-0.65981 -1.94792,-0.65982 -2.2932,0.97746 -2.29321,0.97745 -3.61496,0.0165 -3.61496,0.0165 -2.68998,-1.34825 -2.68997,-1.34825 -1.57318,-2.06285 -1.57317,-2.06284 -0.29293,-2.61892 -0.29293,-2.61892 1.16468,-3.44163 1.16468,-3.44163 v -1.5266 -1.5266 l -0.82029,-2.81196 -0.82029,-2.81196 -0.82817,-2.18662 -0.82817,-2.18662 -2.03528,-3.29394 -2.03529,-3.29394 -2.63118,-2.53827 -2.63119,-2.53826 -1.51571,-1.62139 -1.51571,-1.62139 -0.62245,-0.82881 -0.62245,-0.82881 -0.30543,0.23249 -0.30543,0.23248 0.79431,1.32673 0.79431,1.32673 3.59868,3.34118 3.59867,3.34118 2.38804,4.00942 2.38805,4.00941 1.12049,2.96809 1.12048,2.96809 0.34207,2.60054 0.34207,2.60054 -1.13362,3.52381 -1.13362,3.52382 v 2.07683 2.07683 l 0.86198,2.05086 0.86198,2.05087 2.38119,1.98621 2.38119,1.9862 2.3894,0.71176 2.38939,0.71176 3.16757,-0.1729 3.16757,-0.1729 z m -55.911642,-2.1834 1.795651,-0.29115 2.321013,-1.82493 2.321012,-1.82494 0.652598,-2.25384 0.652597,-2.25385 -0.99132,-2.3871 -0.99132,-2.38711 -2.113394,-1.37317 -2.113394,-1.37317 -3.436744,0.008 -3.436744,0.008 -1.953654,1.20803 -1.953654,1.20803 -1.093024,1.45738 -1.093024,1.45739 -0.370708,1.84316 -0.370708,1.84316 0.600773,1.80874 0.600773,1.80873 1.670995,1.35467 1.670996,1.35466 1.750087,0.41052 1.750088,0.41052 1.167727,0.0402 1.167727,0.0402 z m 54.198412,-0.63145 2.35085,-0.92259 1.25393,-1.63898 1.25392,-1.63898 4.1e-4,-2.67294 4.2e-4,-2.67294 -1.09624,-1.51199 -1.09623,-1.51198 -2.1117,-1.38371 -2.11171,-1.3837 h -3.42626 -3.42626 l -1.94059,1.19995 -1.94058,1.19996 -0.90161,1.54031 -0.90161,1.54032 0.0121,2.16013 0.0121,2.16012 1.02294,1.82604 1.02293,1.82603 1.65498,0.95536 1.65498,0.95536 1.29403,0.42017 1.29403,0.42018 1.8872,0.0282 1.8872,0.0282 z m -7.89019,-44.13111 -0.11544,-0.28191 1.66351,-0.26972 1.66351,-0.26972 -0.34361,-0.45072 -0.34361,-0.45072 h 1.3738 1.3738 l 0.32156,-0.42181 0.32157,-0.4218 -2.89935,-0.16403 -2.89935,-0.16402 3.57187,-0.0892 3.57187,-0.0892 0.80566,-0.41309 0.80566,-0.41309 -1.52833,-0.47107 -1.52833,-0.47107 -3.39872,-0.07 -3.39872,-0.07 2.7476,-0.31544 2.74759,-0.31544 -4.67091,0.0513 -4.67091,0.0513 -0.0947,2.34375 -0.0947,2.34375 0.59178,-0.2965 0.59178,-0.29651 -0.38426,0.50405 -0.38426,0.50404 0.60776,1.82977 0.60776,1.82977 1.75181,-1.48537 1.75181,-1.48538 z m 0.28812,-1.58162 0.72124,-0.23398 0.332,0.26915 0.332,0.26915 -1.05324,-0.0352 -1.05325,-0.0352 z m 6.0447,-2.22746 0.72125,-0.23398 0.332,0.26915 0.332,0.26915 -1.05325,-0.0352 -1.05324,-0.0352 z m -9.34182,-0.89098 0.72125,-0.23398 0.332,0.26915 0.332,0.26915 -1.05324,-0.0352 -1.05325,-0.0352 z m -25.999098,3.04887 3.846628,-0.87341 6.70119,-1.58482 6.70118,-1.58482 4.83871,-0.73904 4.83871,-0.73904 4.12139,-0.0596 4.12139,-0.0596 2.11478,0.36253 2.11479,0.36253 -0.3559,-0.46685 -0.35591,-0.46685 -1.75888,-0.44375 -1.75888,-0.44375 2.06069,0.12449 2.0607,0.1245 v -0.35604 -0.35603 l -0.13738,-0.007 -0.13738,-0.007 -2.19808,-0.67422 -2.19807,-0.67421 2.06069,0.14598 2.0607,0.14598 v -0.31891 -0.31891 l -1.51118,-0.44745 -1.51117,-0.44744 1.23641,-0.0352 1.23642,-0.0352 v -0.37742 -0.37741 l -1.23642,-0.48342 -1.23641,-0.48341 1.26884,-0.0301 1.26885,-0.0302 -0.36342,-0.4767 -0.36342,-0.47671 -1.18019,-0.38604 -1.18018,-0.38603 1.3037,-0.0282 1.3037,-0.0282 -0.68409,-0.66823 -0.68409,-0.66824 -1.16913,-0.0527 -1.16913,-0.0527 1.64856,-0.3228 1.64855,-0.3228 -1.02614,-0.36045 -1.02614,-0.36045 1.26207,-0.54757 1.26206,-0.54757 -1.88448,-0.36522 -1.88448,-0.36522 1.92332,-0.28076 1.92331,-0.28076 -1.92331,-0.75904 -1.92332,-0.75904 2.0607,0.14889 2.06069,0.1489 v -0.30199 -0.30199 l -1.51118,-0.47455 -1.51117,-0.47455 -1.09904,-0.23202 -1.09904,-0.23202 3.02236,0.21082 3.02235,0.21083 -1.05713,-0.66636 -1.05713,-0.66636 -1.96522,-0.2649 -1.96523,-0.26489 -0.54952,-0.15109 -0.54951,-0.1511 1.65218,-0.0352 1.65218,-0.0352 1.81881,0.42288 1.8188,0.42288 -0.21515,-0.53425 -0.21515,-0.53425 -1.88204,-0.53172 -1.88204,-0.53172 -4.12139,-0.0234 -4.12139,-0.0234 -4.67091,0.6319 -4.67091,0.6319 -12.08941,2.53558 -12.089411,2.53559 -7.00633,0.0606 -7.00633,0.0606 -3.3e-5,0.1101 -3.4e-5,0.11009 1.785936,0.66843 1.785936,0.66843 -1.785936,-0.14451 -1.785936,-0.1445 v 0.32069 0.32069 l 2.060695,0.72822 2.060695,0.72823 -1.785935,-0.15793 -1.785936,-0.15794 v 0.38984 0.38984 l 1.785936,0.67031 1.785935,0.67031 -1.923315,-0.23798 -1.923315,-0.23798 1.297295,0.88264 1.297294,0.88263 h -0.970324 -0.970324 l 0.994615,0.89099 0.994615,0.89098 H 78.511301 77.85728 l 0.564462,0.85504 0.564463,0.85504 -0.682508,0.22477 -0.682508,0.22477 0.824278,0.47258 0.824278,0.47259 -1.099037,0.0216 -1.099038,0.0216 1.343377,0.90641 1.343376,0.90641 -1.618136,-0.28404 -1.618135,-0.28404 1.297295,0.92203 1.297294,0.92202 -1.297294,0.0187 -1.297295,0.0187 1.923315,0.84787 1.923315,0.84788 -2.060695,-0.2566 -2.060695,-0.2566 v 0.30254 0.30254 l 1.785936,0.66645 1.785936,0.66646 -2.060695,-0.26266 -2.060695,-0.26266 v 0.41444 0.41444 l 1.259321,0.66894 1.259322,0.66893 1.076133,0.24998 1.076132,0.24998 6.594225,-0.17242 6.594224,-0.17242 z m -11.771269,-3.93321 -0.04338,-1.8569 0.333552,-0.70467 0.333551,-0.70467 h 0.490727 0.490726 v 1.79594 1.79595 l 0.831276,0.2586 0.831276,0.2586 0.81728,-0.54988 0.81728,-0.54987 v -1.06914 -1.06913 l -2.172091,-1.91035 -2.172091,-1.91034 -0.561901,-1.19813 -0.561902,-1.19814 0.509614,-1.08664 0.509613,-1.08664 1.028794,-0.44636 1.028793,-0.44636 2.042157,0.0852 2.042157,0.0852 -0.159673,1.74733 -0.159673,1.74734 -0.686899,0.18312 -0.686898,0.18312 v -1.28449 -1.2845 l -0.633703,-0.51374 -0.633702,-0.51374 -1.014854,0.44032 -1.014853,0.44031 v 0.94363 0.94364 l 2.747593,2.3552 2.747594,2.3552 v 1.58589 1.58588 l -1.159588,0.94007 -1.159588,0.94007 -2.091993,-0.2712 -2.091993,-0.27119 -0.276908,0.55622 -0.276907,0.55623 z m 8.611536,-0.1763 0.686899,-0.59519 v -5.23466 -5.23465 l -0.961658,-0.45408 -0.961658,-0.45408 0.824278,-0.0648 0.824278,-0.0649 0.912976,0.0726 0.912976,0.0726 0.355872,-0.4668 0.355872,-0.46681 h 0.626992 0.626991 l -0.659422,0.53459 -0.659423,0.53459 v 2.3611 2.3611 h 0.989134 0.989134 l 0.659422,-0.53459 0.659418,-0.53459 v -1.88932 -1.88932 l -0.558478,-0.27982 -0.558482,-0.27982 0.28427,-0.37288 0.28427,-0.37289 1.03647,0.21974 1.03647,0.21973 0.36921,-0.4843 0.36921,-0.4843 h 0.62699 0.62699 l -0.65942,0.53459 -0.65942,0.53459 v 5.47953 5.47953 h 0.58195 0.58195 l -0.35344,0.46361 -0.35343,0.46361 -1.00655,-0.25898 -1.00655,-0.25899 -0.35343,0.46361 -0.35344,0.46361 h -0.503484 -0.503487 l 0.535918,-1.14273 0.535913,-1.14272 v -1.76695 -1.76694 l -0.831272,-0.2586 -0.831276,-0.2586 -0.81728,0.54987 -0.81728,0.54988 v 2.30655 2.30656 l 0.659423,0.53458 0.659422,0.53459 -1.071561,0.006 -1.071562,0.006 -1.373796,0.27727 -1.373797,0.27727 z m 11.404521,-2.80219 -0.93034,-1.15108 0.18941,-4.45949 0.1894,-4.4595 1.3738,-1.09565 1.3738,-1.09566 1.37379,-0.26992 1.3738,-0.26991 1.00341,0.5955 1.00341,0.5955 0.30386,2.71665 0.30386,2.71664 -0.37153,2.38772 -0.37153,2.38772 -0.94897,1.01403 -0.94896,1.01403 -1.99344,0.26225 -1.99343,0.26225 z m 4.39414,-5.85638 v -5.79138 h -1.09904 -1.09903 l -0.46293,3.53388 -0.46292,3.53387 0.36915,2.39523 0.36914,2.39522 1.19282,-0.13772 1.19281,-0.13773 z m 4.56101,5.03404 0.65942,-0.53459 v -5.39043 -5.39044 l -0.6869,-0.5731 -0.6869,-0.57311 1.09904,0.14077 1.09904,0.14077 1.81069,-0.6101 1.8107,-0.61011 1.31939,0.48735 1.31939,0.48735 0.36003,1.55581 0.36003,1.55581 -0.51182,1.24901 -0.51182,1.24901 -1.32974,0.53242 -1.32974,0.53243 -1.02714,0.25357 -1.02713,0.25357 0.23826,2.67034 0.23826,2.67033 -0.95082,-0.24465 -0.95081,-0.24464 -0.35344,0.46361 -0.35343,0.46361 h -0.62699 -0.627 z m 5.01855,-6.77984 0.64707,-0.63207 -0.16765,-2.37499 -0.16764,-2.37499 h -1.09904 -1.09904 l -0.16859,2.3971 -0.16859,2.39709 0.28873,0.60997 0.28872,0.60996 h 0.49948 0.49948 z m -31.417449,-7.16401 0.142858,-1.78196 -0.980272,-2.61949 -0.980272,-2.61948 -1.572775,1.83987 -1.572775,1.83988 H 82.747548 82.25343 l -1.387252,0.73689 -1.387251,0.73689 0.719687,0.37001 0.719687,0.37002 -1.877522,0.007 -1.877522,0.007 0.35757,0.28988 0.35757,0.28988 3.443268,0.35419 3.443267,0.35419 -4.04908,-0.17708 -4.04908,-0.17708 0.375383,0.31262 0.375382,0.31262 3.673698,0.54004 3.673697,0.54005 -3.571872,-0.15754 -3.571871,-0.15754 1.099037,0.37464 1.099038,0.37463 4.12139,-0.0889 4.12139,-0.0889 z m -2.169207,0.80941 0.721243,-0.23399 0.332001,0.26916 0.332001,0.26915 -1.053244,-0.0352 -1.053244,-0.0352 z m 6.467443,0.30432 h 0.779334 l -0.0036,-0.77961 -0.0036,-0.77961 -1.68648,-4.89693 -1.686479,-4.89693 -0.14413,-0.11685 -0.14413,-0.11684 -1.680143,0.47482 -1.680142,0.47482 1.318338,1.91224 1.318339,1.91223 0.636542,3.64902 0.636541,3.64902 0.780135,-0.24269 0.780135,-0.24269 z m 17.814413,-4.23643 v -0.57717 l -2.44058,-5.21464 -2.44058,-5.21464 -0.28331,-0.22968 -0.28332,-0.22968 -0.83577,0.26 -0.83577,0.26 2.43256,5.59214 2.43256,5.59213 0.32043,0.42031 0.32042,0.42031 0.80668,-0.25095 0.80668,-0.25095 z m -28.858281,-6.89941 5.332857,-0.88955 11.350573,-3.0937 11.350571,-3.09369 4.94567,-1.16715 4.94567,-1.16715 5.73856,-0.86372 5.73856,-0.86373 h 3.92806 3.92806 l 2.69755,0.66342 2.69755,0.66341 0.22255,0.005 0.22255,0.005 -1.04683,-0.96653 -1.04683,-0.96652 0.96166,0.28431 0.96166,0.2843 v -0.28506 -0.28506 l -0.96166,-0.89126 -0.96166,-0.89126 0.6869,0.32561 0.6869,0.32562 v -0.32534 -0.32533 l -0.90945,-0.81468 -0.90944,-0.81469 h 0.99461 0.99462 l -0.94304,-0.84478 -0.94304,-0.84478 0.72049,-0.20386 0.72049,-0.20386 -1.09904,-1.03264 -1.09903,-1.03265 0.78028,0.3724 0.78028,0.37241 -0.43359,-0.85269 -0.4336,-0.85269 -0.009,-0.66824 -0.009,-0.66823 -0.5419,-0.55686 -0.5419,-0.55687 1.02894,-0.0148 1.02894,-0.0148 -1.37379,-0.93228 -1.3738,-0.93228 1.92331,0.30026 1.92332,0.30026 -1.3738,-0.98135 -1.37379,-0.98136 1.23641,0.25002 1.23642,0.25002 v -0.38956 -0.38956 l -1.51118,-0.70716 -1.51117,-0.70716 1.78593,0.2363 1.78594,0.23631 v -0.21815 -0.21816 l -1.78594,-0.88277 -1.78593,-0.88276 0.37636,-0.002 0.37637,-0.002 1.45682,0.44902 1.45681,0.44903 -0.21455,-0.5604 -0.21455,-0.5604 -2.15745,-0.86536 -2.15745,-0.86537 -6.05541,0.0275 -6.0554,0.0275 -4.94567,0.74842 -4.94567,0.74842 -4.12139,0.90324 -4.12139,0.90324 -14.012724,3.7111 -14.012726,3.71111 -4.644594,0.75736 -4.644595,0.75735 -2.901399,-0.19506 -2.901399,-0.19505 0.588019,0.57439 0.588019,0.57439 2.287065,0.45398 2.287066,0.45399 -2.884973,-0.19179 -2.884973,-0.19179 v 0.22353 0.22354 l 2.335454,0.89707 2.335455,0.89707 -2.060695,-0.2708 -2.060695,-0.2708 v 0.41803 0.41803 l 2.060695,0.72972 2.060695,0.72973 -2.114787,-0.265 -2.114787,-0.26501 0.39482,0.5179 0.39482,0.5179 1.719967,0.64782 1.719967,0.64782 -1.785936,-0.23519 -1.785936,-0.23518 v 0.42012 0.42013 l 1.511177,0.69874 1.511176,0.69874 -1.373797,-0.29436 -1.373796,-0.29436 1.373796,1.2244 1.373797,1.2244 -1.373797,-0.33729 -1.373796,-0.33729 1.099037,1.02573 1.099037,1.02573 -0.961657,-0.28431 -0.961658,-0.2843 v 0.34241 0.34241 l 0.686898,0.56098 0.686899,0.56099 -0.961658,-0.29681 -0.961658,-0.2968 v 0.38997 0.38997 l 1.511177,0.79314 1.511176,0.79313 -1.785936,-0.27986 -1.785935,-0.27985 v 0.2475 0.2475 l 2.060695,0.88193 2.060695,0.88193 -0.278387,0.0197 -0.278388,0.0197 -1.782308,-0.41439 -1.782307,-0.41439 v 0.35875 0.35875 l 1.785935,0.71373 1.785936,0.71374 -0.997784,0.0101 -0.997784,0.0101 -1.062911,-0.46116 -1.062911,-0.46116 v 0.66968 0.66968 l 1.511176,0.66463 1.511177,0.66462 3.374001,0.0178 3.374001,0.0178 z m -4.762223,-2.7716 0.649384,-0.52645 v -5.66516 -5.66515 l -0.686899,-0.2247 -0.686898,-0.2247 1.355425,-0.0352 1.355424,-0.0352 2.424307,-0.75058 2.424306,-0.75058 0.753798,0.83573 0.753798,0.83572 -0.0034,0.91721 -0.0034,0.91721 -0.826152,1.28424 -0.826153,1.28424 0.954429,0.56578 0.954428,0.56578 v 1.74894 1.74895 l -0.94501,1.16924 -0.94501,1.16923 -2.064853,0.2541 -2.064854,0.25409 -1.611042,0.42682 -1.611041,0.42683 z m 6.14457,-4.12431 v -2.40823 l -0.538161,-0.26964 -0.538162,-0.26964 -1.110395,0.48177 -1.110394,0.48176 v 1.79558 1.79557 l 0.572592,0.86736 0.572591,0.86736 1.075965,-0.46683 1.075964,-0.46683 z m -0.659422,-3.88638 0.659422,-0.53459 v -1.92959 -1.92959 l -0.861215,-0.26792 -0.861215,-0.26792 -0.5541,0.44921 -0.5541,0.4492 -0.279005,2.28289 -0.279006,2.28289 h 1.034898 1.034899 z m 3.835834,5.79057 0.703577,-0.70221 1.219738,-6.06153 1.219738,-6.06153 0.929227,-0.002 0.929227,-0.002 0.339621,-0.44549 0.339621,-0.44549 h 0.499842 0.499841 l -0.288147,0.60874 -0.288148,0.60875 1.193535,5.07126 1.193534,5.07125 0.623036,0.3273 0.623036,0.32729 -0.824278,0.0596 -0.824278,0.0596 -0.645461,-0.0646 -0.645461,-0.0646 -0.348628,0.4573 -0.348628,0.45731 h -0.406744 -0.406744 l 0.216959,-1.5066 0.216959,-1.5066 -0.590705,-0.29596 -0.590705,-0.29597 -1.047184,0.45434 -1.047184,0.45434 -0.361632,1.16809 -0.361631,1.16809 0.640466,0.62563 0.640466,0.62562 h -0.84662 -0.84662 l -1.006601,0.30615 -1.006601,0.30616 z m 5.011593,-6.48108 -0.05478,-1.67059 -0.380831,-1.10924 -0.38083,-1.10923 -0.355708,0.46659 -0.355709,0.46659 -0.378517,2.31323 -0.378518,2.31324 h 1.169833 1.169832 z m 5.526899,3.69782 0.661026,-0.64571 -0.181601,-5.81453 -0.181602,-5.81453 0.602471,6.3e-4 0.602472,6.3e-4 1.729763,-0.69957 1.729761,-0.69956 1.23964,0.1427 1.23964,0.1427 0.16795,1.87631 0.16795,1.87632 -0.65889,0.99808 -0.65889,0.99808 0.62832,0.16979 0.62832,0.16979 v 2.16819 2.16819 l 0.91214,0.41383 0.91215,0.41383 -1.19826,0.51989 -1.19827,0.51989 -0.53816,-0.26964 -0.53816,-0.26964 v -2.43788 -2.43789 l -0.83128,-0.25861 -0.83127,-0.2586 -0.81728,0.54988 -0.817283,0.54988 v 2.30655 2.30655 l 0.659422,0.53459 0.659421,0.53459 h -1.451268 -1.451269 l -0.339621,0.44549 -0.339622,0.44549 h -0.584373 -0.584373 z m 4.85883,-7.90771 0.65942,-0.53459 v -2.16934 -2.16933 l -1.23642,0.14235 -1.236414,0.14236 -0.164802,2.56157 -0.164803,2.56157 h 0.741799 0.7418 z m 5.56349,5.0525 0.59112,-0.89541 v -5.12614 -5.12613 l -0.61803,-0.30965 -0.61802,-0.30966 2.1292,-0.66568 2.1292,-0.66567 1.92332,-0.0533 1.92331,-0.0533 0.17306,1.70464 0.17305,1.70464 -0.81681,1.01062 -0.8168,1.01061 1.12162,0.77856 1.12162,0.77856 -0.28643,2.06011 -0.28643,2.06012 -1.4585,1.01705 -1.4585,1.01705 h -1.65404 -1.65404 l -1.1045,0.47922 -1.10451,0.47921 z m 5.64987,-2.5132 0.46183,-1.33647 -0.31876,-1.47551 -0.31876,-1.4755 -1.20511,0.13903 -1.20512,0.13903 -0.16468,2.8182 -0.16469,2.8182 1.22673,-0.14525 1.22673,-0.14526 z m -0.68194,-5.53935 0.56886,-0.86169 v -1.84223 -1.84224 l -1.23642,0.14236 -1.23642,0.14236 -0.1648,2.56157 -0.1648,2.56157 h 0.83236 0.83237 z m 4.65099,5.95302 0.86353,-0.70006 v -5.22497 -5.22496 l -0.65942,-0.53459 -0.65942,-0.53459 h 1.3738 1.37379 l 0.57893,-0.46933 0.57893,-0.46934 2.27857,-0.16908 2.27857,-0.16909 v 1.27022 1.27022 l -0.33356,0.70467 -0.33355,0.70467 h -0.49072 -0.49073 l -0.008,-1.00235 -0.008,-1.00235 -0.46957,-0.6007 -0.46957,-0.6007 -1.03319,0.15954 -1.03319,0.15953 -0.16481,2.55724 -0.1648,2.55725 h 0.54964 0.54963 l 0.56012,-0.77961 0.56011,-0.77961 -0.0267,2.00471 -0.0267,2.0047 -0.27717,-0.55686 -0.27717,-0.55686 h -0.77849 -0.77848 v 2.46418 2.46417 l 0.83127,0.25861 0.83128,0.2586 0.7866,-0.52924 0.7866,-0.52923 0.16806,-1.60225 0.16806,-1.60225 0.6869,-0.18293 0.6869,-0.18293 v 2.24245 2.24246 l -3.30941,0.30354 -3.30941,0.30353 -0.29489,0.38682 -0.2949,0.38682 h -0.8311 -0.8311 z m 9.10529,-1.07197 0.82326,-0.42191 0.001,-5.02852 0.001,-5.02853 -0.38813,-1.11373 -0.38812,-1.11373 1.48716,-0.0789 1.48717,-0.0789 1.69732,-0.29521 1.69732,-0.29522 0.91289,0.74008 0.91289,0.74007 v 1.665 1.66499 l -0.76937,0.85299 -0.76937,0.853 0.76937,0.89049 0.76937,0.89049 v 1.86846 1.86846 l 0.6869,0.20418 0.6869,0.20419 -0.62853,0.54295 -0.62853,0.54296 -1.02002,-0.15715 -1.02003,-0.15715 -0.27476,-2.89169 -0.27476,-2.89169 -1.23642,-0.14236 -1.23641,-0.14235 v 2.88954 2.88955 l 0.68689,0.26192 0.6869,0.26192 -1.52429,-0.16505 -1.52429,-0.16505 -0.29408,0.38575 -0.29407,0.38574 -0.92923,-0.007 -0.92922,-0.007 z m 5.71218,-7.84246 0.33355,-0.70467 v -1.96827 -1.96827 h -1.3738 -1.37379 v 2.67294 2.67294 h 1.04024 1.04025 z m 1.49325,18.41292 1.03837,-0.77961 h 1.06661 1.06661 l 0.31762,-0.41663 0.31762,-0.41664 -1.79637,-0.1803 -1.79636,-0.18031 3.1273,-0.0713 3.1273,-0.0713 0.32239,-0.42289 0.32239,-0.42289 -2.90017,-0.17381 -2.90018,-0.17381 3.71049,0.0398 3.71049,0.0398 -0.001,-0.33411 -0.001,-0.33412 -1.23642,-0.0444 -1.23642,-0.0444 1.3738,-0.33514 1.3738,-0.33515 -2.19808,-0.32516 -2.19807,-0.32517 -1.3738,-0.3695 -1.3738,-0.3695 3.02235,0.18333 3.02236,0.18333 -1.64856,-0.47215 -1.64855,-0.47216 -5.45877,0.25692 -5.45877,0.25692 -0.16634,0.13485 -0.16634,0.13485 -0.0613,1.52814 -0.0613,1.52813 0.11862,1.89334 0.11863,1.89333 h 0.50883 0.50883 l -0.11076,0.55687 -0.11076,0.55686 0.42572,0.79122 0.42571,0.79121 1.91969,-1.45945 1.91969,-1.45945 z m 2.54955,-4.65793 1.23642,-0.19306 1.23641,0.19306 1.23642,0.19306 h -2.47283 -2.47284 z m -3.81229,-0.8809 0.72125,-0.23398 0.332,0.26915 0.332,0.26915 -1.05324,-0.0352 -1.05325,-0.0352 z M 77.801142,128.921 l 0.729472,-0.18438 -0.331802,-2.78505 -0.331802,-2.78506 -0.07712,-0.66293 -0.07712,-0.66293 -0.655454,-0.53137 -0.655455,-0.53137 -2.093139,1.79073 -2.09314,1.79073 -1.418589,0.49203 -1.418589,0.49202 2.472834,0.29248 2.472834,0.29248 -3.269636,0.0669 -3.269636,0.0669 0.522042,0.41876 0.522043,0.41877 2.747593,0.16917 2.747594,0.16917 -3.297112,0.13895 -3.297112,0.13894 1.923315,0.36317 1.923315,0.36316 -2.658002,-0.14871 -2.658003,-0.14871 0.569367,0.46159 0.569366,0.46158 2.088636,0.31025 2.088636,0.31026 2.747594,-0.19159 2.747593,-0.19159 z m -3.305341,-0.93567 0.721244,-0.23398 0.332001,0.26915 0.332,0.26915 -1.053244,-0.0352 -1.053244,-0.0352 z"
         id="path1" /></g><path
       style="fill:#ffffff;fill-opacity:1;stroke-width:0.546963"
       d="m 11.305521,-38.304835 c -2.4031267,-0.539885 -5.6767953,-3.23705 -6.1707671,-5.08408 -0.6523554,-2.439246 0.3847346,-4.88469 2.8872245,-6.808031 3.3049216,-2.540068 7.4522266,-2.540068 10.7571476,0 3.302305,2.538056 4.064136,6.199103 1.827513,8.782283 -2.204072,2.545583 -6.065651,3.836702 -9.301118,3.109828 z m 5.92376,-6.306897 c 0,-2.072211 -0.162424,-2.468985 -0.957182,-2.338236 -0.52645,0.08661 -1.276634,-0.0428 -1.667076,-0.287568 -0.390442,-0.244771 -1.12884,-0.262334 -1.640884,-0.03903 -0.512044,0.223306 -1.361722,0.352711 -1.888172,0.287568 -0.789057,-0.09764 -0.957183,0.319921 -0.957183,2.377265 v 2.495706 h 3.555249 3.555248 z"
       id="path2" /><path
       style="fill:#ffffff;fill-opacity:1;stroke-width:2.06726"
       d=""
       id="path12"
       transform="scale(0.26458333)" /><path
       style="opacity:0.639;fill:#ededed;fill-opacity:0;stroke-width:2.06726"
       d="M 1.0336277,609.84034 V 285.28125 H 396.91304 792.79245 v 324.55909 324.5591 H 396.91304 1.0336277 Z M 316.03597,873.97125 c 12.07897,-3.61896 27.11822,-18.78223 30.2813,-30.53104 2.07714,-7.71517 1.89964,-12.78278 -1.04006,-29.69617 -4.51966,-26.00357 -3.29931,-33.73163 9.2808,-58.77304 7.60391,-15.13601 13.35026,-23.29061 23.40415,-33.21265 14.31671,-14.12897 14.09845,-14.09294 25.64763,-4.23407 15.82999,13.51313 35.78648,50.5943 37.34528,69.39127 0.52154,6.28911 -0.62884,18.47818 -2.65527,28.13448 -2.85628,13.61066 -3.11701,18.74054 -1.29615,25.50265 3.08794,11.46775 9.8071,20.75188 20.61083,28.47878 l 9.02003,6.4512 41.58094,-0.51162 c 23.30792,-0.28677 44.62432,-1.51602 48.50629,-2.79718 7.10135,-2.34367 14.85243,-12.22555 14.86665,-18.95357 0.006,-2.98942 -1.03016,-3.37298 -5.67722,-2.10087 -3.12673,0.85592 -9.40601,1.57134 -13.95398,1.58982 l -8.26902,0.0336 -1.23223,-16.54215 c -1.42382,-19.11424 -4.90262,-27.05725 -15.7795,-36.02877 -8.35719,-6.89322 -26.5822,-14.61488 -34.49474,-14.61488 -6.5654,0 -18.12661,-5.0239 -22.20421,-9.64881 -6.21359,-7.04754 -13.63514,-24.34319 -22.91499,-53.40248 -11.56147,-36.20407 -12.57567,-41.31608 -8.81593,-44.4364 6.13324,-5.09012 9.68457,-1.39558 14.40377,14.98451 2.53972,8.81525 6.31478,17.90299 8.389,20.19497 3.75302,4.14704 3.7996,4.13292 9.60412,-2.90896 3.56641,-4.32666 13.87738,-11.20843 26.53624,-17.71084 27.41224,-14.08071 28.05822,-15.15821 23.81786,-39.72975 -2.38216,-13.80383 -2.93143,-24.62914 -1.93702,-38.17601 l 1.38798,-18.90866 -5.88452,-3.84022 c -5.17401,-3.37653 -10.07378,-3.81884 -40.57839,-3.66297 -19.08161,0.0975 -34.69384,-0.11951 -34.69384,-0.48225 0,-1.89276 14.45766,-42.32104 16.49771,-46.13289 2.99918,-5.60402 11.09027,-4.95856 12.01227,0.95825 2.49166,15.98991 5.23113,25.84037 8.8339,31.76464 l 4.16748,6.85291 8.74019,-8.05642 c 4.80711,-4.43104 12.78571,-9.86405 17.73019,-12.07339 23.02945,-10.29014 42.61147,-20.86938 44.49155,-24.03673 1.46443,-2.46708 0.66417,-9.80063 -2.74604,-25.16453 -3.84189,-17.30876 -4.36397,-22.97021 -2.58806,-28.06466 1.22361,-3.51002 2.84482,-11.86261 3.60269,-18.56131 1.22578,-10.83459 -5.27839,-18.6245 -8.94038,-20.58435 -6.43791,-3.44546 -14.48759,0.0443 -37.56691,-2.12728 -11.67704,-1.09872 -21.66893,-2.43564 -22.20422,-2.97093 -0.5353,-0.5353 0.66398,-8.59229 2.66506,-17.90443 3.1308,-14.56932 3.30794,-19.42757 1.26983,-34.82706 -2.69034,-20.32759 -6.0658,-33.40033 -8.62417,-33.40033 -1.90479,0 -3.05636,2.30175 -28.4419,56.84953 -9.52443,20.46583 -18.44647,38.31499 -19.82674,39.66481 -3.24102,3.16949 -60.48839,17.987 -64.11541,16.59519 -1.51575,-0.58166 -9.59386,-15.80377 -17.95136,-33.82692 -31.96469,-68.93272 -37.05884,-79.28261 -39.02228,-79.28261 -3.4138,0 -8.55676,27.73859 -8.55676,46.15094 0,9.58475 1.51201,24.12222 3.36003,32.30549 3.7746,16.71443 2.00712,22.33174 -5.0244,15.9683 -5.17079,-4.67949 -7.09404,-4.3909 -12.96289,1.94514 -2.75642,2.97584 -13.13741,10.89762 -23.06888,17.60395 -11.34582,7.6614 -18.4967,13.94444 -19.23967,16.90474 -0.65038,2.59128 0.53911,13.04224 2.64331,23.22434 3.4307,16.60097 3.55229,20.53795 1.17741,38.12064 -2.43223,18.0072 -2.35395,19.90215 0.95904,23.21513 5.66174,5.66174 23.88321,8.24002 47.50472,6.72175 20.48985,-1.31699 21.18937,-1.22065 21.18937,2.91805 0,3.18719 -3.91274,6.42743 -15.32434,12.69049 -22.70774,12.46272 -21.32318,7.98593 -15.97294,51.6468 0.76629,6.25345 0.43725,16.9515 -0.73125,23.77344 -2.70936,15.81798 -1.88041,21.06514 3.92917,24.87175 5.09296,3.33702 28.93387,7.00541 46.18784,7.10687 5.9692,0.0351 10.85309,0.44024 10.85309,0.90027 0,2.74643 -18.84536,57.7426 -21.76259,63.50943 -7.12631,14.08748 -18.22774,22.47886 -29.73859,22.47886 -10.98378,0 -29.26344,8.30189 -38.40237,17.4408 -9.55977,9.55979 -13.45922,20.66246 -13.45922,38.32176 0,12.58329 -2.56988,14.28577 -16.10129,10.66667 -5.09409,-1.36247 -9.79373,-1.94543 -10.44365,-1.29551 -2.23677,2.23677 6.89884,16.17431 13.09937,19.98472 4.91261,3.01896 10.01153,3.76176 24.40327,3.55502 10.0062,-0.14374 18.76619,0.31176 19.46666,1.01221 2.29337,2.29339 36.08018,1.33398 44.77636,-1.27147 z M 54.222387,364.65524 c -0.686932,-0.68693 -2.46994,-0.76037 -3.96224,-0.1632 -1.649118,0.65992 -1.159267,1.14977 1.248968,1.24896 2.17923,0.0898 3.400203,-0.39883 2.713272,-1.08576 z M 36.17697,359.46948 c -3.979467,-2.3936 -9.079893,-5.87862 -11.33428,-7.74448 -3.913598,-3.23911 -3.960322,-3.21378 -1.033628,0.56025 3.381588,4.36063 14.289118,11.53625 17.536046,11.53625 1.136991,0 -1.188672,-1.95841 -5.168138,-4.35202 z m 40.319819,-6.29414 c 3.952285,-4.67221 3.878649,-4.66184 -2.090384,0.29437 -9.915046,8.23266 -10.554519,8.9254 -6.163846,6.67725 2.286703,-1.17085 6.001106,-4.30808 8.25423,-6.97162 z m -34.118053,-9.66162 c 0,-7.30257 9.278359,-13.62558 12.506324,-8.52281 1.64794,2.60507 1.909584,2.59235 1.964464,-0.0955 0.108653,-5.32164 4.065708,2.27275 4.102855,7.87421 0.01757,2.64992 0.951268,4.20497 2.098911,3.49569 3.122258,-1.92966 2.479842,-8.59474 -1.18129,-12.25587 -1.786698,-1.7867 -6.371575,-3.24855 -10.188615,-3.24855 -3.81704,0 -8.401917,1.46185 -10.188615,3.24855 -3.571297,3.5713 -4.477869,15.35675 -1.18129,15.35675 1.136991,0 2.067256,-2.6336 2.067256,-5.85244 z M 22.494958,329.61987 c 0.705959,-1.8397 0.35939,-2.66949 -0.812455,-1.94525 -1.123966,0.69465 -2.043577,2.13836 -2.043577,3.20825 0,2.9736 1.481739,2.31835 2.856032,-1.263 z m 59.161631,1.29961 c 0,-2.8171 -10.357041,-14.6294 -12.827076,-14.6294 -1.167797,0 1.007993,3.64231 4.835089,8.09403 7.767727,9.03551 7.991987,9.21889 7.991987,6.53537 z M 35.271175,314.6952 c -0.692946,-0.69295 -2.865717,0.42136 -4.828379,2.47623 -3.41143,3.57171 -3.355983,3.62715 1.259901,1.2599 2.655609,-1.36193 4.261424,-3.04319 3.568478,-3.73613 z"
       id="path18"
       transform="scale(0.26458333)"
       sodipodi:nodetypes="cccccccccsssssssssscsscsscsssssssssssscsssssscsssssssssssssssssssssssssssssssssssssssssssssssssssssssssssssssssssssssssssssssss" /><rect
       style="opacity:0.171875;fill:#000000;fill-opacity:0;stroke-width:0.155637"
       id="rect30"
       width="10.052197"
       height="22.049982"
       x="42.89119"
       y="29.984373"
       ry="4.826129" /></g></svg>
